<svg width="512" height="512" viewBox="0 0 512 512" fill="none" xmlns="http://www.w3.org/2000/svg">
<g clip-path="url(#clip0_309_91)">
<path d="M13.6348 107.661C43.2683 51.1615 128.691 7.48121 224.204 0.914555C319.763 -5.78446 425.241 24.5948 470.06 82.3282C514.705 140.025 498.866 225.111 502.502 305.358C505.916 385.703 529.246 461.012 487.046 492.324C445.063 523.537 337.725 510.788 260 500.298C182.399 489.978 134.239 481.882 104.287 461.394C74.5062 440.94 62.5868 408.023 54.1319 379.538C45.8946 350.956 40.8583 327.039 25.4192 280.239C9.9327 233.574 -16.1736 164.124 13.6348 107.661Z" fill="#00AFF0"/>
<path d="M350.276 388.885C345.146 384.902 339.937 382.577 334.643 381.911C331.662 381.583 326.531 383.822 319.246 388.636C311.961 393.45 308.821 398.172 309.817 402.821C312.131 413.444 322.063 422.07 339.609 428.711C340.933 429.038 342.256 428.541 343.58 427.217C344.904 425.888 346.968 425.141 349.785 424.978C352.596 424.808 354.994 422.483 356.979 418.009C358.965 413.523 359.627 408.959 358.971 404.315C358.303 398.009 355.408 392.867 350.276 388.885ZM398.192 89.0515C392.564 87.4003 386.936 85.7432 381.308 84.0859C377.337 82.7621 373.197 82.9265 368.898 84.5838C364.593 86.2411 362.11 89.0515 361.448 93.0223C360.124 101.96 351.849 139.681 336.623 206.193C326.69 251.2 321.729 289.256 321.729 320.36C321.729 327.306 321.893 334.257 322.227 341.203C323.216 354.438 332.154 362.713 349.038 366.022C352.013 366.684 355.243 365.773 358.716 363.29C362.189 360.813 363.931 358.08 363.931 355.1C362.936 321.683 368.898 278.832 381.806 226.545C396.698 166.316 405.138 124.625 407.129 101.456C407.457 95.8337 404.481 91.6993 398.192 89.0515ZM276.994 374.578C271.602 326.971 271.602 277.566 268.007 228.16C265.76 223.669 266.21 215.584 266.21 208.399C261.267 193.128 259.92 173.815 255.426 158.545C251.832 139.232 252.729 114.529 243.743 102.403C233.858 102.852 230.263 106.444 222.625 109.588C214.536 143.274 208.695 179.205 200.158 211.991C192.968 190.882 183.532 172.916 175.894 152.257V145.968C168.255 134.74 166.458 115.427 154.326 109.588C150.731 114.08 147.586 110.936 142.194 112.284C140.846 115.876 139.947 120.817 136.802 122.613V143.274C132.757 167.527 136.802 199.415 135.004 225.465C134.555 232.203 132.757 238.94 132.308 244.329C132.308 246.126 133.657 247.922 133.657 248.821C133.657 255.109 130.961 264.99 132.308 271.277C135.004 275.769 132.757 286.997 133.657 294.184C135.903 319.785 131.86 359.758 133.657 385.358C136.802 386.257 139.049 380.867 140.846 385.358C143.093 381.765 146.238 379.519 149.832 379.968C157.472 355.266 155.225 309.904 158.371 285.201C153.877 262.744 157.022 231.753 160.616 209.297C158.819 201.661 157.472 189.085 159.268 180.103C163.313 188.636 166.908 197.62 168.704 209.297C175.445 220.525 177.242 238.491 181.286 253.313C184.431 256.906 186.678 260.948 186.678 267.685C191.621 270.379 191.172 280.261 197.012 281.608C198.81 289.692 204.201 292.387 208.246 297.777C211.841 297.327 215.435 297.328 217.232 299.573C228.915 295.532 220.827 274.871 224.422 261.397C223.074 243.881 228.465 220.974 233.858 206.602C241.496 263.643 241.047 331.911 245.99 392.544C250.034 397.036 256.774 397.934 257.223 406.918C259.47 406.918 261.716 406.467 261.267 409.612C263.514 406.918 268.906 408.264 272.052 406.918C273.4 402.875 275.645 400.629 277.444 397.934C278.791 388.502 273.399 381.316 276.994 374.578Z" fill="white"/>
</g>
<defs>
<clipPath id="clip0_309_91">
<rect width="512" height="512" fill="white"/>
</clipPath>
</defs>
</svg>
