<?xml version="1.0" encoding="utf-8"?>
<!DOCTYPE svg PUBLIC "-//W3C//DTD SVG 1.1//EN" "http://www.w3.org/Graphics/SVG/1.1/DTD/svg11.dtd">
<svg version="1.1" xmlns="http://www.w3.org/2000/svg" xmlns:xlink="http://www.w3.org/1999/xlink" x="0px" y="0px" width="2500px"
height="2500px" viewBox="0 0 2500 2500" enable-background="new 0 0 2500 2500" xml:space="preserve">
<g id="Tertiary" display="none">
<path display="inline" fill="#757575" d="M303.26,670.551c115.756-220.7,449.438-391.326,822.535-416.977
c373.277-26.168,785.302,92.501,960.375,318.022c174.396,225.379,112.525,557.745,126.727,871.21
c13.338,313.848,104.469,608.025-60.375,730.336c-163.994,121.924-583.285,72.123-886.898,31.148
c-303.128-40.313-491.254-71.936-608.255-151.969c-116.33-79.896-162.89-208.48-195.917-319.748
c-32.177-111.65-51.85-205.075-112.159-387.888C288.799,1162.398,186.821,891.112,303.26,670.551z"/>
<g display="inline">
<g>
<path fill="#FFFFFF" d="M1618.266,1769.081c-20.039-15.556-40.387-24.638-61.068-27.242c-11.646-1.282-31.686,7.467-60.143,26.27
c-28.459,18.804-40.723,37.252-36.832,55.412c9.037,41.496,47.834,75.191,116.375,101.132c5.172,1.277,10.338-0.664,15.51-5.836
c5.172-5.191,13.236-8.109,24.238-8.748c10.982-0.663,20.35-9.745,28.104-27.222c7.756-17.521,10.344-35.352,7.781-53.491
C1649.621,1804.722,1638.311,1784.637,1618.266,1769.081z M1805.436,597.858c-21.984-6.45-43.969-12.923-65.953-19.397
c-15.51-5.171-31.684-4.529-48.477,1.945c-16.816,6.474-26.516,17.452-29.1,32.963c-5.172,34.912-37.496,182.26-96.975,442.071
c-38.801,175.81-58.178,324.465-58.178,445.965c0,27.133,0.639,54.285,1.945,81.418c3.865,51.7,38.777,84.025,104.729,96.952
c11.621,2.583,24.24-0.973,37.805-10.673c13.566-9.676,20.373-20.35,20.373-31.991c-3.889-130.538,19.4-297.925,69.822-502.17
c58.174-235.267,91.141-398.125,98.92-488.628C1841.629,624.351,1830.004,608.201,1805.436,597.858z M1332.008,1713.197
c-21.064-185.967-21.064-378.956-35.107-571.946c-8.775-17.545-7.018-49.125-7.018-77.193
c-19.309-59.652-24.572-135.091-42.126-194.743c-14.041-75.44-10.534-171.937-45.637-219.304
c-38.613,1.754-52.655,15.788-82.492,28.068c-31.596,131.584-54.414,271.94-87.763,400.013
c-28.083-82.459-64.943-152.637-94.78-233.338v-24.565c-29.838-43.86-36.86-119.3-84.251-142.11
c-14.042,17.545-26.326,5.265-47.391,10.53c-5.265,14.034-8.776,33.333-21.061,40.349v80.705
c-15.8,94.739,0,219.304-7.023,321.062c-1.753,26.318-8.776,52.633-10.53,73.686c0,7.019,5.266,14.034,5.266,17.546
c0,24.561-10.53,63.159-5.266,87.72c10.53,17.547,1.754,61.406,5.266,89.479c8.776,100.004-7.019,256.148,0,356.148
c12.288,3.512,21.064-17.541,28.084,0c8.776-14.033,21.064-22.807,35.102-21.053c29.842-96.492,21.065-273.69,33.354-370.184
c-17.554-87.724-5.27-208.781,8.772-296.501c-7.02-29.826-12.284-78.951-5.266-114.038c15.8,33.333,29.842,68.424,36.86,114.038
c26.33,43.86,33.349,114.039,49.145,171.937c12.288,14.035,21.064,29.827,21.064,56.141
c19.307,10.526,17.553,49.125,40.367,54.387c7.023,31.579,28.084,42.105,43.883,63.159c14.042-1.754,28.084-1.754,35.103,7.019
c45.637-15.787,14.042-96.492,28.084-149.125c-5.266-68.425,15.795-157.903,36.86-214.043
c29.837,222.816,28.083,489.487,47.391,726.336c15.795,17.547,42.125,21.054,43.878,56.145c8.777,0,17.553-1.758,15.799,10.527
c8.777-10.527,29.838-5.266,42.127-10.527c5.264-15.791,14.037-24.564,21.061-35.091
C1339.025,1767.588,1317.965,1739.516,1332.008,1713.197z"/>
</g>
</g>
</g>
<g id="Secondary">
<path fill="#FFFFFF" d="M303.26,670.551c115.756-220.7,449.438-391.326,822.535-416.977
c373.277-26.168,785.302,92.501,960.375,318.022c174.396,225.379,112.525,557.745,126.727,871.21
c13.338,313.848,104.469,608.025-60.375,730.336c-163.994,121.924-583.285,72.123-886.898,31.148
c-303.128-40.313-491.254-71.936-608.255-151.969c-116.33-79.896-162.89-208.48-195.917-319.748
c-32.177-111.65-51.85-205.075-112.159-387.888C288.799,1162.398,186.821,891.112,303.26,670.551z"/>
<g>
<g>
<path fill="#00AFF0" d="M1618.266,1769.081c-20.039-15.556-40.387-24.638-61.068-27.242c-11.646-1.282-31.686,7.467-60.143,26.27
c-28.459,18.804-40.723,37.252-36.832,55.412c9.037,41.496,47.834,75.191,116.375,101.132c5.172,1.277,10.338-0.664,15.51-5.836
c5.172-5.191,13.236-8.109,24.238-8.748c10.982-0.663,20.35-9.745,28.104-27.222c7.756-17.521,10.344-35.352,7.781-53.491
C1649.621,1804.722,1638.311,1784.637,1618.266,1769.081z M1805.436,597.858c-21.984-6.45-43.969-12.923-65.953-19.397
c-15.51-5.171-31.684-4.529-48.477,1.945c-16.816,6.474-26.516,17.452-29.1,32.963c-5.172,34.912-37.496,182.26-96.975,442.071
c-38.801,175.81-58.178,324.465-58.178,445.965c0,27.133,0.639,54.285,1.945,81.418c3.865,51.7,38.777,84.025,104.729,96.952
c11.621,2.583,24.24-0.973,37.805-10.673c13.566-9.676,20.373-20.35,20.373-31.991c-3.889-130.538,19.4-297.925,69.822-502.17
c58.174-235.267,91.141-398.125,98.92-488.628C1841.629,624.351,1830.004,608.201,1805.436,597.858z M1332.008,1713.197
c-21.064-185.967-21.064-378.956-35.107-571.946c-8.775-17.545-7.018-49.125-7.018-77.193
c-19.309-59.652-24.572-135.091-42.126-194.743c-14.041-75.44-10.534-171.937-45.637-219.304
c-38.613,1.754-52.655,15.788-82.492,28.068c-31.596,131.584-54.414,271.94-87.763,400.013
c-28.083-82.459-64.943-152.637-94.78-233.338v-24.565c-29.838-43.86-36.86-119.3-84.251-142.11
c-14.042,17.545-26.326,5.265-47.391,10.53c-5.265,14.034-8.776,33.333-21.061,40.349v80.705
c-15.8,94.739,0,219.304-7.023,321.062c-1.753,26.318-8.776,52.633-10.53,73.686c0,7.019,5.266,14.034,5.266,17.546
c0,24.561-10.53,63.159-5.266,87.72c10.53,17.547,1.754,61.406,5.266,89.479c8.776,100.004-7.019,256.148,0,356.148
c12.288,3.512,21.064-17.541,28.084,0c8.776-14.033,21.064-22.807,35.102-21.053c29.842-96.492,21.065-273.69,33.354-370.184
c-17.554-87.724-5.27-208.781,8.772-296.501c-7.02-29.826-12.284-78.951-5.266-114.038c15.8,33.333,29.842,68.424,36.86,114.038
c26.33,43.86,33.349,114.039,49.145,171.937c12.288,14.035,21.064,29.827,21.064,56.141
c19.307,10.526,17.553,49.125,40.367,54.387c7.023,31.579,28.084,42.105,43.883,63.159c14.042-1.754,28.084-1.754,35.103,7.019
c45.637-15.787,14.042-96.492,28.084-149.125c-5.266-68.425,15.795-157.903,36.86-214.043
c29.837,222.816,28.083,489.487,47.391,726.336c15.795,17.547,42.125,21.054,43.878,56.145c8.777,0,17.553-1.758,15.799,10.527
c8.777-10.527,29.838-5.266,42.127-10.527c5.264-15.791,14.037-24.564,21.061-35.091
C1339.025,1767.588,1317.965,1739.516,1332.008,1713.197z"/>
</g>
</g>
</g>
<g id="Primary" display="none">
<path display="inline" fill="#00AFF0" d="M303.26,670.551c115.756-220.7,449.438-391.326,822.535-416.977
c373.277-26.168,785.302,92.501,960.375,318.022c174.396,225.379,112.525,557.745,126.727,871.21
c13.338,313.848,104.469,608.025-60.375,730.336c-163.994,121.924-583.285,72.123-886.898,31.148
c-303.128-40.313-491.254-71.936-608.255-151.969c-116.33-79.896-162.89-208.48-195.917-319.748
c-32.177-111.65-51.85-205.075-112.159-387.888C288.799,1162.398,186.821,891.112,303.26,670.551z"/>
<g display="inline">
<g>
<path fill="#FFFFFF" d="M1618.266,1769.081c-20.039-15.556-40.387-24.638-61.068-27.242c-11.646-1.282-31.686,7.467-60.143,26.27
c-28.459,18.804-40.723,37.252-36.832,55.412c9.037,41.496,47.834,75.191,116.375,101.132c5.172,1.277,10.338-0.664,15.51-5.836
c5.172-5.191,13.236-8.109,24.238-8.748c10.982-0.663,20.35-9.745,28.104-27.222c7.756-17.521,10.344-35.352,7.781-53.491
C1649.621,1804.722,1638.311,1784.637,1618.266,1769.081z M1805.436,597.858c-21.984-6.45-43.969-12.923-65.953-19.397
c-15.51-5.171-31.684-4.529-48.477,1.945c-16.816,6.474-26.516,17.452-29.1,32.963c-5.172,34.912-37.496,182.26-96.975,442.071
c-38.801,175.81-58.178,324.465-58.178,445.965c0,27.133,0.639,54.285,1.945,81.418c3.865,51.7,38.777,84.025,104.729,96.952
c11.621,2.583,24.24-0.973,37.805-10.673c13.566-9.676,20.373-20.35,20.373-31.991c-3.889-130.538,19.4-297.925,69.822-502.17
c58.174-235.267,91.141-398.125,98.92-488.628C1841.629,624.351,1830.004,608.201,1805.436,597.858z M1332.008,1713.197
c-21.064-185.967-21.064-378.956-35.107-571.946c-8.775-17.545-7.018-49.125-7.018-77.193
c-19.309-59.652-24.572-135.091-42.126-194.743c-14.041-75.44-10.534-171.937-45.637-219.304
c-38.613,1.754-52.655,15.788-82.492,28.068c-31.596,131.584-54.414,271.94-87.763,400.013
c-28.083-82.459-64.943-152.637-94.78-233.338v-24.565c-29.838-43.86-36.86-119.3-84.251-142.11
c-14.042,17.545-26.326,5.265-47.391,10.53c-5.265,14.034-8.776,33.333-21.061,40.349v80.705
c-15.8,94.739,0,219.304-7.023,321.062c-1.753,26.318-8.776,52.633-10.53,73.686c0,7.019,5.266,14.034,5.266,17.546
c0,24.561-10.53,63.159-5.266,87.72c10.53,17.547,1.754,61.406,5.266,89.479c8.776,100.004-7.019,256.148,0,356.148
c12.288,3.512,21.064-17.541,28.084,0c8.776-14.033,21.064-22.807,35.102-21.053c29.842-96.492,21.065-273.69,33.354-370.184
c-17.554-87.724-5.27-208.781,8.772-296.501c-7.02-29.826-12.284-78.951-5.266-114.038c15.8,33.333,29.842,68.424,36.86,114.038
c26.33,43.86,33.349,114.039,49.145,171.937c12.288,14.035,21.064,29.827,21.064,56.141
c19.307,10.526,17.553,49.125,40.367,54.387c7.023,31.579,28.084,42.105,43.883,63.159c14.042-1.754,28.084-1.754,35.103,7.019
c45.637-15.787,14.042-96.492,28.084-149.125c-5.266-68.425,15.795-157.903,36.86-214.043
c29.837,222.816,28.083,489.487,47.391,726.336c15.795,17.547,42.125,21.054,43.878,56.145c8.777,0,17.553-1.758,15.799,10.527
c8.777-10.527,29.838-5.266,42.127-10.527c5.264-15.791,14.037-24.564,21.061-35.091
C1339.025,1767.588,1317.965,1739.516,1332.008,1713.197z"/>
</g>
</g>
</g>
</svg>
